<svg width="37" height="37" viewBox="0 0 37 37" fill="none" xmlns="http://www.w3.org/2000/svg">
    <defs>
        <linearGradient id="grad" x1="0%" y1="0%" x2="0%" y2="100%">
            <stop offset="0%" style="stop-color:#A658D0;stop-opacity:1"/>
            <stop offset="100%" style="stop-color:#3C2576;stop-opacity:1"/>
        </linearGradient>
    </defs>
    <path d="M36.0312 0.171875H10.5312C10.3199 0.171875 10.1172 0.255831 9.96777 0.405274C9.81833 0.554717 9.73438 0.757406 9.73438 0.96875V9.73438H0.96875C0.757406 9.73438 0.554717 9.81833 0.405274 9.96777C0.255831 10.1172 0.171875 10.3199 0.171875 10.5312V36.0312C0.171875 36.2426 0.255831 36.4453 0.405274 36.5947C0.554717 36.7442 0.757406 36.8281 0.96875 36.8281H26.4688C26.6801 36.8281 26.8828 36.7442 27.0322 36.5947C27.1817 36.4453 27.2656 36.2426 27.2656 36.0312V27.2656H36.0312C36.2426 27.2656 36.4453 27.1817 36.5947 27.0322C36.7442 26.8828 36.8281 26.6801 36.8281 26.4688V0.96875C36.8281 0.757406 36.7442 0.554717 36.5947 0.405274C36.4453 0.255831 36.2426 0.171875 36.0312 0.171875ZM25.6719 35.2344H1.76562V11.3281H25.6719V35.2344ZM35.2344 25.6719H27.2656V10.5312C27.2656 10.3199 27.1817 10.1172 27.0322 9.96777C26.8828 9.81833 26.6801 9.73438 26.4688 9.73438H11.3281V1.76562H35.2344V25.6719Z"
          fill="url(#grad)"/>
</svg>
