<svg width="18" height="23" viewBox="0 0 80 63" fill="none" xmlns="http://www.w3.org/2000/svg">
<path d="M67.7675 5.19602C62.521 2.73677 56.9706 0.989362 51.2631 0C50.5522 1.28766 49.7215 3.01956 49.1487 4.39738C42.995 3.47038 36.8978 3.47038 30.8572 4.39738C30.2847 3.01987 29.4353 1.28766 28.7178 0C23.0046 0.989818 17.4495 2.74167 12.2006 5.20885C1.7556 21.0217 -1.07596 36.4413 0.339666 51.6427C7.26748 56.8256 13.9812 59.9741 20.5819 62.0345C22.2223 59.7745 23.6724 57.3818 24.9172 54.8811C22.5472 53.9772 20.2626 52.8633 18.0903 51.5526C18.6619 51.1281 19.2201 50.6857 19.764 50.2261C32.9272 56.3942 47.2297 56.3942 60.2359 50.2261C60.7822 50.6827 61.3402 51.125 61.9094 51.5526C59.7336 52.8667 57.4446 53.9829 55.07 54.8877C56.3218 57.3985 57.7694 59.7935 59.4053 62.0407C66.0122 59.9807 72.7322 56.8322 79.66 51.6427C81.3212 34.0207 76.8225 18.7425 67.7675 5.19602ZM26.7106 42.2942C22.759 42.2942 19.5184 38.5984 19.5184 34.098C19.5184 29.5976 22.69 25.8956 26.7106 25.8956C30.7315 25.8956 33.9719 29.591 33.9028 34.098C33.909 38.5984 30.7315 42.2942 26.7106 42.2942ZM53.289 42.2942C49.3375 42.2942 46.0972 38.5984 46.0972 34.098C46.0972 29.5976 49.2684 25.8956 53.289 25.8956C57.31 25.8956 60.5503 29.591 60.4812 34.098C60.4812 38.5984 57.31 42.2942 53.289 42.2942Z" fill="#1A1B1F"/>
</svg>
